<svg viewBox="0 0 1915.4 1011.03" xmlns="http://www.w3.org/2000/svg" xmlns:xlink="http://www.w3.org/1999/xlink"><clipPath id="a" transform="translate(0 -17.62)"><path d="m372.9 110.3h1178.8v575.5h-1178.8z"/></clipPath><path d="m957.7 874.7c528.92 0 957.7 33.94 957.7 75.8s-530.24 112.56-957.7 58.7c-501.42-63.2-957.7-16.84-957.7-58.7s428.78-75.8 957.7-75.8z" fill="#f2f4f6" transform="translate(0 -17.62)"/><ellipse cx="353.2" cy="923.98" fill="#231f20" opacity=".1" rx="132.4" ry="3.5"/><path d="m381.9 819.08h-103.6v52.3h103.6 103.7v-52.3z" fill="#5290e9"/><path d="m359.6 870.38h-81.3v2h81.3 81.3v-2z" fill="#231f20" opacity=".2"/><path d="m337.2 871.38h-103.6v52.3h103.6 103.7v-52.3z" fill="#5290e9"/><path d="m359.6 17.62h1212a10 10 0 0 1 10 10l-.83 670.88a10 10 0 0 1 -10 10h-1212a10 10 0 0 1 -10-10l.83-670.88a10 10 0 0 1 10-10z" fill="#edeeef" transform="translate(0 -17.62)"/><path d="m372.9 22.68h1178.8v56.1h-1178.8z" fill="#fff"/><g clip-path="url(#a)"><path d="m372.8 92.78h322.5v178.5h-322.5z" fill="#fff"/><path d="m532.7 172.78h3v61h-3z" fill="#4d4d4d"/><path d="m575.7 202.8 9.5 17.4c.9 1.5-.2 4.2-2 4.2h-19.1c-1.7 0-2.8-2.7-2-4.2l9.5-17c1-1.5 3.2-1.9 4.1-.4z" fill="#8fc899" transform="translate(0 -17.62)"/><path d="m711 92.78h322.5v178.5h-322.5z" fill="#fff"/><path d="m870.7 172.78h3v61h-3z" fill="#4d4d4d"/><path d="m910.2 223.4-9.5-17.6c-.9-1.5.2-4.5 2-4.5h19c1.7 0 2.8 3 2 4.5l-9.5 17.1c-1 1.5-3.2 2-4 .5z" fill="#e7616a" transform="translate(0 -17.62)"/><path d="m1049.7 92.78h242.5v233h-242.5z" fill="#fff"/><path d="m1309.9 92.78h242.5v233h-242.5z" fill="#fff"/><path d="m372.7 285.78h660v413h-660z" fill="#fff"/><path d="m384.6 383.58h636.5v34.5h-636.5z" fill="#e2e2e2"/><path d="m384.6 383.58h344.9v34.5h-344.9z" fill="#8fc899"/><path d="m729.5 368.28h14.1v49.8h-14.1z" fill="#4d4d4d"/><path d="m716.7 331.6v3.5a21.05 21.05 0 0 1 2.5.2l2.4.3c.8.1 1.5.3 2.2.4a12.09 12.09 0 0 1 1.8.5l-1.4 5.4c-1.3-.3-2.5-.6-3.8-.8a23.08 23.08 0 0 0 -3.7-.3v8.7l1.1.2a15.57 15.57 0 0 1 3.7 1 10 10 0 0 1 2.8 1.7 8 8 0 0 1 1.8 2.7 8.65 8.65 0 0 1 .6 3.9v.6a9.42 9.42 0 0 1 -2.5 6.8c-1.7 1.7-4.2 2.7-7.6 3.1v4.1h-3.4v-3.9a44.29 44.29 0 0 1 -5.1-.6 26.43 26.43 0 0 1 -4.8-1.4l1.5-5.5a26.19 26.19 0 0 0 4 1.1 32.93 32.93 0 0 0 4.4.5v-8.8l-.5-.1a19 19 0 0 1 -3.9-1.1 9.23 9.23 0 0 1 -3-1.8 7.74 7.74 0 0 1 -1.9-2.8 8.22 8.22 0 0 1 -.6-3.8v-.5a8.77 8.77 0 0 1 2.7-7 12 12 0 0 1 7.2-2.8v-3.7zm-6.8 13.4a3.77 3.77 0 0 0 .8 2.7 5.81 5.81 0 0 0 2.6 1.3v-7.9a4.32 4.32 0 0 0 -2.6 1.3 3.66 3.66 0 0 0 -.8 2.6zm10.3 14.8a3.32 3.32 0 0 0 -.9-2.7 5 5 0 0 0 -2.6-1.3v8.1a3.61 3.61 0 0 0 3.5-4.1z" fill="#545454" transform="translate(0 -17.62)"/><path d="m838.5 435.28h4.5v2.9h-4.5z" fill="#4d4d4d"/><path d="m843 447.4h-4.5v-5.4h4.5zm0-10.8h-4.5v-5.4h4.5zm0-10.9h-4.5v-5.4h4.5zm0-10.8h-4.5v-5.4h4.5z" fill="#4d4d4d" transform="translate(0 -17.62)"/><path d="m838.5 383.58h4.5v2.9h-4.5z" fill="#4d4d4d"/><path d="m384.6 499.58h636.5v34.5h-636.5z" fill="#e2e2e2"/><path d="m384.6 499.58h178v34.5h-178z" fill="#e7616a"/><path d="m555.6 484.28h14.1v49.8h-14.1z" fill="#4d4d4d"/><path d="m542.7 447.5v3.5a21.05 21.05 0 0 1 2.5.2l2.4.3c.8.1 1.5.3 2.2.4a12.09 12.09 0 0 1 1.8.5l-1.4 5.4c-1.3-.3-2.5-.6-3.8-.8a23.08 23.08 0 0 0 -3.7-.3v8.7l1.1.2a15.57 15.57 0 0 1 3.7 1 10 10 0 0 1 2.8 1.7 8 8 0 0 1 1.8 2.7 8.65 8.65 0 0 1 .6 3.9v.6a9.42 9.42 0 0 1 -2.5 6.8c-1.7 1.7-4.2 2.7-7.6 3.1v4.1h-3.4v-3.9a44.29 44.29 0 0 1 -5.1-.6 28.52 28.52 0 0 1 -4.8-1.3l1.5-5.5a26.19 26.19 0 0 0 4 1.1 32.93 32.93 0 0 0 4.4.5v-8.8l-.5-.1a19 19 0 0 1 -3.9-1.1 9.23 9.23 0 0 1 -3-1.8 8 8 0 0 1 -2.5-6.5v-.5a8.77 8.77 0 0 1 2.7-7 12 12 0 0 1 7.2-2.8v-3.7zm-6.8 13.5a3.77 3.77 0 0 0 .8 2.7 5.81 5.81 0 0 0 2.6 1.3v-7.9a4.32 4.32 0 0 0 -2.6 1.3 3.53 3.53 0 0 0 -.8 2.6zm10.3 14.8a3.32 3.32 0 0 0 -.9-2.7 5 5 0 0 0 -2.6-1.3v8.1a4.59 4.59 0 0 0 2.7-1.3 4 4 0 0 0 .8-2.8z" fill="#545454" transform="translate(0 -17.62)"/><path d="m656.2 551.18h4.5v2.9h-4.5z" fill="#4d4d4d"/><path d="m660.7 563.4h-4.5v-5.4h4.5zm0-10.8h-4.5v-5.4h4.5zm0-10.9h-4.5v-5.4h4.5zm0-10.8h-4.5v-5.4h4.5z" fill="#4d4d4d" transform="translate(0 -17.62)"/><path d="m656.2 499.58h4.5v2.9h-4.5z" fill="#4d4d4d"/><path d="m780.1 663.4a1.23 1.23 0 0 1 -1.1-.7l-19.5-35.2a1.28 1.28 0 0 0 -1.7-.5c-.1 0-.1.1-.2.1l-20.6 17a1.24 1.24 0 0 1 -1.7-.1l-.1-.1-.1-.1-19.7-31.4a1.3 1.3 0 0 0 -1.8-.4.78.78 0 0 0 -.4.4l-19.8 31.7a1.3 1.3 0 0 1 -1.8.4c-.1-.1-.2-.1-.2-.2l-18.8-17.5a1.19 1.19 0 0 0 -1.8.1l-.1.1-25.2 35.3c-.2.3-.6.8-1 .8h-21c-.5 0-1-.6-1.2-1.1l-15.8-35a1.29 1.29 0 0 0 -1.7-.6.35.35 0 0 0 -.2.1l-22.4 16.5a1.22 1.22 0 0 1 -1.6-.1l-18.3-16.5a1.22 1.22 0 0 0 -1.6 0l-22.3 17.6a1.38 1.38 0 0 1 -1.8-.2c0-.1-.1-.1-.1-.2l-16.8-30.9a1.28 1.28 0 0 0 -1.7-.5 1.2 1.2 0 0 0 -.5.5c-3.7 6.7-11.3 20.9-15.6 33.8-6.2 18.7-28.1 16-28.3 16s-.3-.1-.5-.2c-.5-.3-11.2-7-17.2-13-5.4-5.4-23.4-32.2-27.3-38.5a1.15 1.15 0 0 0 -1.1-.6h-17.9a1.3 1.3 0 0 0 -1.2.8l-21.8 50.1a1.35 1.35 0 0 1 -1.6.7 1.25 1.25 0 0 1 -.7-1.7v-.1l22.3-50.8c.2-.5.7-.2 1.2-.2h21c.4 0 .8-.3 1.1 0s21.9 32.9 27.8 38.7c5.1 5.1 14.1 10.7 16.3 12 .2.1.3.2.5.2 3.3.3 19.9 1 25-14.4 6-17.9 17.9-38.1 18.1-38.3a1.28 1.28 0 0 1 1.7-.5 1.2 1.2 0 0 1 .5.5l17.5 32.2a1.28 1.28 0 0 0 1.7.5c.1 0 .1-.1.2-.1l21.6-17.1a1.35 1.35 0 0 1 1.7 0l18.3 17a1.22 1.22 0 0 0 1.6.1l23.2-17.3a1.39 1.39 0 0 1 1.1-.2 1.09 1.09 0 0 1 .8.8l16.3 36.5a1.3 1.3 0 0 0 1.2.8h18a1.23 1.23 0 0 0 1-.5l26.2-36.4a1.46 1.46 0 0 1 .9-.6 1.69 1.69 0 0 1 1 .3l18.7 17.3a1.27 1.27 0 0 0 1.8-.1c.1-.1.1-.1.1-.2l20.3-32.4a1.61 1.61 0 0 1 1.1-.5 1 1 0 0 1 1.1.5l20.4 32.3a1.3 1.3 0 0 0 1.8.4l.1-.1 20.7-17.2a1.43 1.43 0 0 1 1.1-.3 1.46 1.46 0 0 1 .9.6l18.2 32.9a1.28 1.28 0 0 0 1.7.5 1.34 1.34 0 0 0 .6-.7l19.1-53.5a1.23 1.23 0 0 1 1.6-.8 1.06 1.06 0 0 1 .7.6l19.4 38.7a1.2 1.2 0 0 0 1.7.5c.1-.1.2-.1.3-.2l21.5-21.5a1.28 1.28 0 0 1 1-.4l21 2a1.45 1.45 0 0 1 1 .7l15.6 33.7a1.32 1.32 0 0 0 1.7.6 1.17 1.17 0 0 0 .6-.6l23.7-53.6a1.43 1.43 0 0 1 1.7-.7c.1.1.3.1.4.3l41.5 39.5a1.27 1.27 0 0 0 1.8 0c.1-.1.1-.2.2-.3l21.3-38.9a1.28 1.28 0 0 1 1.7-.5 1.34 1.34 0 0 1 .6.7l17.8 55.2a1.27 1.27 0 0 0 1.6.8.76.76 0 0 0 .4-.2l20.2-17.3a1.37 1.37 0 0 1 1.8.1 1.27 1.27 0 0 1 -.1 1.8l-22.9 19.8a1.27 1.27 0 0 1 -1.8-.1c-.1-.2-.2-.3-.3-.5l-17.1-53.2a1.23 1.23 0 0 0 -1.6-.8 1.06 1.06 0 0 0 -.7.6l-20.1 36.7a1.28 1.28 0 0 1 -1.7.5c-.1-.1-.2-.1-.3-.2l-41.6-39.2a1.27 1.27 0 0 0 -1.8.1c-.1.1-.1.2-.2.3l-24.4 55.7a1.43 1.43 0 0 1 -1.7.7 2.34 2.34 0 0 1 -.7-.7l-17.2-37.5a1.2 1.2 0 0 0 -1-.7l-18.3-1.8a1.28 1.28 0 0 0 -1 .4l-23.1 23a1.27 1.27 0 0 1 -1.8 0c-.1-.1-.2-.2-.2-.3l-18.3-36.5a1.32 1.32 0 0 0 -1.7-.6 1.06 1.06 0 0 0 -.6.7l-18.9 53.2a1.17 1.17 0 0 1 -1.1.8z" fill="#69a0ef" transform="translate(0 -17.62)"/><path d="m384.7 662.1 23.4-52.7h21s21.9 33.3 27.9 39.3 17 12.7 17 12.7 21 2.8 26.9-15.1 18-38 18-38l19 34.9 23.9-19 20 18 24.9-18.2 17 39.5h21l26.9-38.9 21 19.3 21.9-35.2 21.9 34.8 22.9-19 21 37.9 21-58.9 21 41.9 23.9-23.9 21 2 18 38.9 25.9-58.8 43.7 41.9 22.9-41.9 18.5 58.8 23.5-21v22.6z" fill="#69a0ef" opacity=".4" transform="translate(0 -17.62)"/><path d="m1020.2 637.9a3.5 3.5 0 1 1 -3.5 3.5 3.54 3.54 0 0 1 3.5-3.5z" fill="#69a0ef" transform="translate(0 -17.62)"/><path d="m1049.7 340.78h502v358h-502z" fill="#fff"/><path d="m1485.7 540.78h14v69h-14z" fill="#e7616a"/><path d="m1456.7 540.78h13v55h-13z" fill="#e7616a"/><path d="m1427.7 540.78h14v39h-14z" fill="#e7616a"/><path d="m1398.7 540.78h14v25h-14z" fill="#e7616a"/><path d="m1370.7 540.78h12v51h-12z" fill="#e7616a"/><path d="m1340.7 540.78h14v74h-14z" fill="#e7616a"/><path d="m1309.7 540.78h14v30h-14z" fill="#e7616a"/><path d="m1281.7 540.78h14v51h-14z" fill="#e7616a"/><path d="m1225.7 540.78h14v58h-14z" fill="#e7616a"/><path d="m1196.7 540.78h14v35h-14z" fill="#e7616a"/><path d="m1138.7 540.78h13v42h-13z" fill="#e7616a"/><path d="m1110.7 540.78h12v66h-12z" fill="#e7616a"/><g fill="#69a0ef"><path d="m1110.7 478.78h12v70h-12z"/><path d="m1138.7 446.78h13v102h-13z"/><path d="m1167.7 491.78h13v57h-13z"/><path d="m1196.7 423.78h14v125h-14z"/><path d="m1225.7 447.78h14v101h-14z"/><path d="m1253.7 475.78h14v73h-14z"/><path d="m1281.7 439.78h14v109h-14z"/><path d="m1340.7 505.78h14v43h-14z"/><path d="m1370.7 473.78h12v75h-12z"/><path d="m1398.7 491.78h14v57h-14z"/><path d="m1427.7 443.78h14v105h-14z"/><path d="m1456.7 458.78h13v90h-13z"/><path d="m1485.7 447.78h14v101h-14z"/></g><path d="m439.39 214.94h11.2v-11.34l9.41-1.6v13h5.39l-1.26 8h-4.13v9.24h-9.38v-9.24h-21.87v-7l18.55-31.78h10.29z" fill="#545454" transform="translate(0 -17.62)"/><path d="m485 232.86q-1.4 0-3.22-.11t-3.75-.38q-1.93-.28-3.85-.7a26 26 0 0 1 -3.6-1l1.54-8a41.38 41.38 0 0 0 6.27 1.36 43.7 43.7 0 0 0 6.05.46q4.76 0 6.76-1.68t2-5.25a8.35 8.35 0 0 0 -.66-3.57 4.78 4.78 0 0 0 -1.93-2.13 8.77 8.77 0 0 0 -3.15-1 29.92 29.92 0 0 0 -4.34-.28h-10.06l.77-26.39h27.37l-1.12 8.26h-17.08l-.28 9.8h4a27 27 0 0 1 7.77 1 13.16 13.16 0 0 1 5.21 2.84 10.81 10.81 0 0 1 2.91 4.58 19.68 19.68 0 0 1 .91 6.23v1.1a16.16 16.16 0 0 1 -1.08 6 12.23 12.23 0 0 1 -3.36 4.73 15.69 15.69 0 0 1 -5.74 3.08 28 28 0 0 1 -8.34 1.05z" fill="#545454" transform="translate(0 -17.62)"/><path d="m604.49 216.6h9.22v-9.34l7.72-1.33v10.67h4.44l-1 6.57h-3.4v7.61h-7.72v-7.61h-18v-5.76l15.25-26.16h8.47z" fill="#545454" transform="translate(0 -17.62)"/><path d="m793.89 191.77a17.77 17.77 0 0 0 -4.83.59 8.23 8.23 0 0 0 -3.57 2 9.43 9.43 0 0 0 -2.28 3.85 20.67 20.67 0 0 0 -.87 6.05 11.46 11.46 0 0 1 4.1-2.55 19.45 19.45 0 0 1 12.5.17 10.83 10.83 0 0 1 4.3 3.15 12.67 12.67 0 0 1 2.38 4.87 25 25 0 0 1 .73 6.26v.84a22.58 22.58 0 0 1 -.91 6.62 12.68 12.68 0 0 1 -2.94 5.11 13.29 13.29 0 0 1 -5.25 3.29 23.09 23.09 0 0 1 -7.77 1.16 21.16 21.16 0 0 1 -8.5-1.47 13.11 13.11 0 0 1 -5.25-4 14.72 14.72 0 0 1 -2.66-5.92 34.2 34.2 0 0 1 -.73-7.25v-7.28a38 38 0 0 1 1.37-10.89 18.83 18.83 0 0 1 4-7.38 15.78 15.78 0 0 1 6.44-4.24 25.8 25.8 0 0 1 8.71-1.36 33.13 33.13 0 0 1 6.09.52 39 39 0 0 1 5.11 1.29l-2 7.77a27.77 27.77 0 0 0 -8.19-1.26zm-11.41 25q0 4.41 1.61 6.37t5.39 2a10.42 10.42 0 0 0 2.8-.35 4.86 4.86 0 0 0 2.17-1.26 6 6 0 0 0 1.4-2.38 12.22 12.22 0 0 0 .49-3.78v-.77q0-4.2-1.5-6.16t-5.07-2a10.56 10.56 0 0 0 -2.77.35 6.34 6.34 0 0 0 -2.31 1.16 5.56 5.56 0 0 0 -1.61 2.13 8.25 8.25 0 0 0 -.6 3.36z" fill="#545454" transform="translate(0 -17.62)"/><path d="m835.12 192.75h-22.12l1.12-8.61h31.64v6.93l-15.33 41.09h-10.71z" fill="#545454" transform="translate(0 -17.62)"/><path d="m941 213.49 1.21-6.63h6.79a6.92 6.92 0 0 0 2.59-.4 4.22 4.22 0 0 0 1.56-1 3.31 3.31 0 0 0 .78-1.44 6.66 6.66 0 0 0 .2-1.61 4.65 4.65 0 0 0 -.52-2.31 3.94 3.94 0 0 0 -1.44-1.47 6.59 6.59 0 0 0 -2.19-.78 15.62 15.62 0 0 0 -2.77-.23 27.71 27.71 0 0 0 -5.71.61 40.55 40.55 0 0 0 -5.3 1.47l1-6.92a31.33 31.33 0 0 1 5.1-1.47 30 30 0 0 1 6.14-.61 22.18 22.18 0 0 1 6.22.78 13 13 0 0 1 4.38 2.13 8.39 8.39 0 0 1 2.56 3.26 10.21 10.21 0 0 1 .84 4.15v.69a9 9 0 0 1 -1.27 4.9 9.28 9.28 0 0 1 -4.15 3.34 8.3 8.3 0 0 1 4.41 3.57 11.09 11.09 0 0 1 1.47 5.76v.81a11.43 11.43 0 0 1 -.86 4.44 9.26 9.26 0 0 1 -2.71 3.6 13.33 13.33 0 0 1 -4.7 2.39 23.73 23.73 0 0 1 -6.83.86q-1.33 0-2.91-.12t-3.23-.37q-1.64-.26-3.23-.66a21.47 21.47 0 0 1 -3-1l1.27-6.51a32.21 32.21 0 0 0 5.47 1.33 32.86 32.86 0 0 0 4.78.4 10.19 10.19 0 0 0 5.71-1.3 4.75 4.75 0 0 0 1.9-4.24 7.32 7.32 0 0 0 -.29-2.07 4.17 4.17 0 0 0 -1-1.73 5 5 0 0 0 -1.87-1.18 8.28 8.28 0 0 0 -2.88-.43z" fill="#545454" transform="translate(0 -17.62)"/><path d="m1062.9 304.58h32.9v11.3h-32.9z" fill="#69a0ef"/><path d="m1099.6 308.58h32.9v7.3h-32.9z" fill="#69a0ef"/><path d="m1136.2 228.48h32.9v87.4h-32.9z" fill="#69a0ef"/><path d="m1172.8 250.08h32.9v65.8h-32.9z" fill="#69a0ef"/><path d="m1209.4 282.98h32.9v32.9h-32.9z" fill="#69a0ef"/><path d="m1246 293.48h32.9v22.4h-32.9z" fill="#69a0ef"/><path d="m1323.1 255.18h32.9v60.7h-32.9z" fill="#69a0ef"/><path d="m1359.8 255.18h32.9v60.7h-32.9z" fill="#69a0ef"/><path d="m1396.4 252.58h32.9v63.3h-32.9z" fill="#69a0ef"/><path d="m1433 247.08h32.9v68.8h-32.9z" fill="#69a0ef"/><path d="m1469.6 250.28h32.9v65.6h-32.9z" fill="#69a0ef"/><path d="m1506.2 250.28h32.9v65.6h-32.9z" fill="#69a0ef"/><path d="m1106.7 153.4v2.3a8.6 8.6 0 0 1 1.6.1c.5.1 1.1.1 1.6.2s1 .2 1.4.3a5.64 5.64 0 0 1 1.2.4l-.9 3.5a22.12 22.12 0 0 0 -2.5-.5 19.42 19.42 0 0 0 -2.4-.2v5.7l.7.1a10.55 10.55 0 0 1 2.4.6 5.44 5.44 0 0 1 1.8 1.1 5.67 5.67 0 0 1 1.2 1.8 7.27 7.27 0 0 1 .4 2.5v.4a6.25 6.25 0 0 1 -1.6 4.5 8.2 8.2 0 0 1 -4.9 2v2.7h-2.2v-2.6a18.59 18.59 0 0 1 -3.3-.4 15.83 15.83 0 0 1 -3.1-.9l1-3.6a19.73 19.73 0 0 0 2.6.7 13.33 13.33 0 0 0 2.8.3v-5.8l-.3-.1a12.55 12.55 0 0 1 -2.6-.7 6.15 6.15 0 0 1 -1.9-1.2 4.39 4.39 0 0 1 -1.2-1.8 6.9 6.9 0 0 1 -.4-2.5v-.4a5.75 5.75 0 0 1 1.8-4.6 8.16 8.16 0 0 1 4.7-1.9v-2.4h2.1zm-4.5 8.8a2.11 2.11 0 0 0 .6 1.8 3.37 3.37 0 0 0 1.7.8v-5.1a3.15 3.15 0 0 0 -1.7.9 2.27 2.27 0 0 0 -.6 1.6zm6.8 9.7a2.11 2.11 0 0 0 -.6-1.8 5.56 5.56 0 0 0 -1.7-.9v5.3a3 3 0 0 0 1.7-.8 2.61 2.61 0 0 0 .6-1.8z" transform="translate(0 -17.62)"/><path d="m1119.6 168.3.7-3.7h3.8a5.9 5.9 0 0 0 1.4-.2 2.36 2.36 0 0 0 .9-.6 1.23 1.23 0 0 0 .4-.8 2.77 2.77 0 0 0 .1-.9 3.08 3.08 0 0 0 -.3-1.3 3 3 0 0 0 -.8-.8 2.84 2.84 0 0 0 -1.2-.4 7.57 7.57 0 0 0 -1.5-.1 17.33 17.33 0 0 0 -3.2.3c-1 .2-2 .5-3 .8l.6-3.9a14.73 14.73 0 0 1 2.8-.8 19.53 19.53 0 0 1 3.4-.3 13.93 13.93 0 0 1 3.5.4 5.45 5.45 0 0 1 2.4 1.2 4.89 4.89 0 0 1 1.4 1.8 5.93 5.93 0 0 1 .5 2.3v.4a5 5 0 0 1 -.7 2.7 6 6 0 0 1 -2.3 1.9 5.46 5.46 0 0 1 2.5 2 6.09 6.09 0 0 1 .8 3.2v.4a7.42 7.42 0 0 1 -.5 2.5 5 5 0 0 1 -1.5 2 7.07 7.07 0 0 1 -2.6 1.3 15.83 15.83 0 0 1 -3.8.5 9.15 9.15 0 0 1 -1.6-.1 11 11 0 0 1 -1.8-.2 11.63 11.63 0 0 1 -1.8-.4 5.77 5.77 0 0 1 -1.7-.6l.7-3.6a15.54 15.54 0 0 0 3.1.7 24.52 24.52 0 0 0 2.7.2 6 6 0 0 0 3.2-.7 2.9 2.9 0 0 0 1.1-2.4 5 5 0 0 0 -.2-1.2 2.08 2.08 0 0 0 -.6-1 3.59 3.59 0 0 0 -1-.7 3 3 0 0 0 -1.6-.2z" transform="translate(0 -17.62)"/><path d="m1135 182.6 1.7-5.2a2 2 0 0 1 -.9-.9 2.77 2.77 0 0 1 -.3-1.3 2.19 2.19 0 0 1 .7-1.7 3.15 3.15 0 0 1 3.9 0 2.24 2.24 0 0 1 .6 1.7 5.85 5.85 0 0 1 -.2 1.3 6.12 6.12 0 0 1 -.5 1.2l-2.3 4.9z" transform="translate(0 -17.62)"/><path d="m1143.7 165.6a19.92 19.92 0 0 1 .4-4.2 9 9 0 0 1 1.3-3.2 6 6 0 0 1 2.5-2 11 11 0 0 1 8 .1 6.41 6.41 0 0 1 2.5 2.1 7.83 7.83 0 0 1 1.2 3.2 27.28 27.28 0 0 1 .3 4.1v2.7a19.92 19.92 0 0 1 -.4 4.2 9 9 0 0 1 -1.3 3.2 5.46 5.46 0 0 1 -2.5 2 11 11 0 0 1 -8-.1 7.21 7.21 0 0 1 -2.5-2.1 7.83 7.83 0 0 1 -1.2-3.2 27.28 27.28 0 0 1 -.3-4.1zm4.8 2.7a15.14 15.14 0 0 0 .2 3 6 6 0 0 0 .6 1.9 2.66 2.66 0 0 0 1 1.1 4.42 4.42 0 0 0 3.2 0 2.17 2.17 0 0 0 1-1.1 7 7 0 0 0 .6-1.9c.1-1 .2-2 .2-3v-2.7a15.14 15.14 0 0 0 -.2-3 6 6 0 0 0 -.6-1.9 2.66 2.66 0 0 0 -1-1.1 4.42 4.42 0 0 0 -3.2 0 2.17 2.17 0 0 0 -1 1.1 7 7 0 0 0 -.6 1.9c-.1 1-.2 2-.2 3z" transform="translate(0 -17.62)"/><path d="m1162.5 165.6a19.92 19.92 0 0 1 .4-4.2 9 9 0 0 1 1.3-3.2 6 6 0 0 1 2.5-2 11 11 0 0 1 8 .1 6.41 6.41 0 0 1 2.5 2.1 7.83 7.83 0 0 1 1.2 3.2 27.28 27.28 0 0 1 .3 4.1v2.7a19.92 19.92 0 0 1 -.4 4.2 9 9 0 0 1 -1.3 3.2 5.46 5.46 0 0 1 -2.5 2 11 11 0 0 1 -8-.1 7.21 7.21 0 0 1 -2.5-2.1 7.83 7.83 0 0 1 -1.2-3.2 27.28 27.28 0 0 1 -.3-4.1zm4.8 2.7a15.14 15.14 0 0 0 .2 3 6 6 0 0 0 .6 1.9 2.66 2.66 0 0 0 1 1.1 4.42 4.42 0 0 0 3.2 0 2.17 2.17 0 0 0 1-1.1 7 7 0 0 0 .6-1.9c.1-1 .2-2 .2-3v-2.7a15.14 15.14 0 0 0 -.2-3 6 6 0 0 0 -.6-1.9 2.66 2.66 0 0 0 -1-1.1 4.42 4.42 0 0 0 -3.2 0 2.17 2.17 0 0 0 -1 1.1 7 7 0 0 0 -.6 1.9c-.1 1-.2 2-.2 3z" transform="translate(0 -17.62)"/><path d="m1188.1 178.3h-1.5a9.85 9.85 0 0 1 -1.7-.2l-1.8-.3a10.93 10.93 0 0 1 -1.7-.5l.7-3.7a13.57 13.57 0 0 0 2.9.6 24.58 24.58 0 0 0 2.8.2 4.83 4.83 0 0 0 3.1-.8 2.72 2.72 0 0 0 .9-2.4 4.14 4.14 0 0 0 -.3-1.6 2.19 2.19 0 0 0 -.9-1 5.78 5.78 0 0 0 -1.4-.5 13.4 13.4 0 0 0 -2-.1h-4.6l.3-12.1h12.6l-.5 3.8h-7.8l-.1 4.5h1.8a14.72 14.72 0 0 1 3.6.4 5.64 5.64 0 0 1 2.4 1.3 4.65 4.65 0 0 1 1.3 2.1 9.24 9.24 0 0 1 .4 2.9v.5a9.18 9.18 0 0 1 -.5 2.8 6.62 6.62 0 0 1 -1.5 2.2 9.39 9.39 0 0 1 -2.6 1.4 16.67 16.67 0 0 1 -3.9.5z" transform="translate(0 -17.62)"/><path d="m1203.2 172.9a3.94 3.94 0 0 1 2.1.6 3.21 3.21 0 0 1 0 4 3.45 3.45 0 0 1 -4.1 0 3.21 3.21 0 0 1 0-4 3.38 3.38 0 0 1 2-.6z" transform="translate(0 -17.62)"/><path d="m1208.7 165.6a19.92 19.92 0 0 1 .4-4.2 9 9 0 0 1 1.3-3.2 6 6 0 0 1 2.5-2 11 11 0 0 1 8 .1 6.41 6.41 0 0 1 2.5 2.1 7.83 7.83 0 0 1 1.2 3.2 27.28 27.28 0 0 1 .3 4.1v2.7a27.27 27.27 0 0 1 -.3 4.1 9 9 0 0 1 -1.3 3.2 5.46 5.46 0 0 1 -2.5 2 11 11 0 0 1 -8-.1 7.21 7.21 0 0 1 -2.5-2.1 7.83 7.83 0 0 1 -1.2-3.2 27.28 27.28 0 0 1 -.3-4.1zm4.8 2.7a15.14 15.14 0 0 0 .2 3 6 6 0 0 0 .6 1.9 2.66 2.66 0 0 0 1 1.1 4.42 4.42 0 0 0 3.2 0 2.17 2.17 0 0 0 1-1.1 7 7 0 0 0 .6-1.9c.1-1 .2-2 .2-3v-2.7a15.14 15.14 0 0 0 -.2-3 6 6 0 0 0 -.6-1.9 2.66 2.66 0 0 0 -1-1.1 4.42 4.42 0 0 0 -3.2 0 2.17 2.17 0 0 0 -1 1.1 7 7 0 0 0 -.6 1.9c-.1 1-.2 2-.2 3z" transform="translate(0 -17.62)"/><path d="m1227.5 165.6a19.92 19.92 0 0 1 .4-4.2 9 9 0 0 1 1.3-3.2 6 6 0 0 1 2.5-2 11 11 0 0 1 8 .1 6.41 6.41 0 0 1 2.5 2.1 7.83 7.83 0 0 1 1.2 3.2 27.28 27.28 0 0 1 .3 4.1v2.7a19.92 19.92 0 0 1 -.4 4.2 9 9 0 0 1 -1.3 3.2 5.46 5.46 0 0 1 -2.5 2 11 11 0 0 1 -8-.1 7.21 7.21 0 0 1 -2.5-2.1 7.83 7.83 0 0 1 -1.2-3.2 27.28 27.28 0 0 1 -.3-4.1zm4.8 2.7a15.14 15.14 0 0 0 .2 3 6 6 0 0 0 .6 1.9 2.66 2.66 0 0 0 1 1.1 4.42 4.42 0 0 0 3.2 0 2.17 2.17 0 0 0 1-1.1 7 7 0 0 0 .6-1.9c.1-1 .2-2 .2-3v-2.7a15.14 15.14 0 0 0 -.2-3 6 6 0 0 0 -.6-1.9 2.66 2.66 0 0 0 -1-1.1 4.42 4.42 0 0 0 -3.2 0 2.17 2.17 0 0 0 -1 1.1 7 7 0 0 0 -.6 1.9c-.1 1-.2 2-.2 3z" transform="translate(0 -17.62)"/><path d="m1164.4 196.3h2.7v-2.7l1.7-.3v3h1.2l-.2 1.4h-1v2h-1.7v-2h-4.6v-1.3l3.9-6.9h1.8z" fill="#e7616a" transform="translate(0 -17.62)"/><path d="m1173.1 196.3h2.7v-2.7l1.7-.3v3h1.2l-.2 1.4h-1v2h-1.7v-2h-4.6v-1.3l3.9-6.9h1.8z" fill="#e7616a" transform="translate(0 -17.62)"/><path d="m1182.4 189.5a5 5 0 0 1 1.2.2 1.56 1.56 0 0 1 .8.6 3.55 3.55 0 0 1 .4.9 4.1 4.1 0 0 1 .1 1.1v.5a4.1 4.1 0 0 1 -.1 1.1 3.55 3.55 0 0 1 -.4.9 1.55 1.55 0 0 1 -.8.6 2.54 2.54 0 0 1 -1.2.2 5 5 0 0 1 -1.2-.2 1.56 1.56 0 0 1 -.8-.6 3.55 3.55 0 0 1 -.4-.9 4.1 4.1 0 0 1 -.1-1.1v-.5a3.75 3.75 0 0 1 .1-1.1 3.55 3.55 0 0 1 .4-.9 5.54 5.54 0 0 1 .8-.6 5 5 0 0 1 1.2-.2zm0 4.8a.91.91 0 0 0 .8-.4 1.72 1.72 0 0 0 .2-1.2v-.4a2.2 2.2 0 0 0 -.1-.8c0-.2-.1-.3-.2-.5s-.2-.2-.3-.2a.6.6 0 0 0 -.4-.1.9.9 0 0 0 -.5.1c-.1 0-.2.1-.3.2a.76.76 0 0 0 -.2.5c0 .3-.1.5-.1.8v.4a2.35 2.35 0 0 0 .2 1.2 1.22 1.22 0 0 0 .9.4zm5.8-4.7h1.6l-5.8 10.1h-1.6zm1.8 4.2a5 5 0 0 1 1.2.2 1.56 1.56 0 0 1 .8.6 3.55 3.55 0 0 1 .4.9 4.1 4.1 0 0 1 .1 1.1v.5a4.1 4.1 0 0 1 -.1 1.1 3.55 3.55 0 0 1 -.4.9 1.55 1.55 0 0 1 -.8.6 2.54 2.54 0 0 1 -1.2.2 5 5 0 0 1 -1.2-.2 1.56 1.56 0 0 1 -.8-.6 3.55 3.55 0 0 1 -.4-.9 4.1 4.1 0 0 1 -.1-1.1v-.5a3.75 3.75 0 0 1 .1-1.1 3.55 3.55 0 0 1 .4-.9 5.54 5.54 0 0 1 .8-.6 5 5 0 0 1 1.2-.2zm0 4.8a.91.91 0 0 0 .8-.4 1.72 1.72 0 0 0 .2-1.2v-.4a2.2 2.2 0 0 0 -.1-.8c0-.2-.1-.3-.2-.5s-.2-.2-.3-.2a.6.6 0 0 0 -.4-.1.9.9 0 0 0 -.5.1c-.1 0-.2.1-.3.2a.76.76 0 0 0 -.2.5c0 .3-.1.5-.1.8v.4a2.35 2.35 0 0 0 .2 1.2 1.22 1.22 0 0 0 .9.4z" fill="#e7616a" transform="translate(0 -17.62)"/><path d="m1155 199.7a.6.6 0 0 1 -.9 0l-4.5-4.4a.5.5 0 0 1 0-.8.76.76 0 0 1 .5-.2c.2 0 .3.1.5.2l3.3 3.3v-9.9c0-.2.1-.3.2-.5a.91.91 0 0 1 1 0 .76.76 0 0 1 .2.5v9.9l3.3-3.3a.75.75 0 0 1 .9 0 .52.52 0 0 1 .2.4c0 .2-.1.3-.2.5l-2.2 2.2z" fill="#e7616a" transform="translate(0 -17.62)"/><path d="m1366.9 153.4v2.3a8.6 8.6 0 0 1 1.6.1c.5.1 1.1.1 1.6.2s1 .2 1.4.3a5.64 5.64 0 0 1 1.2.4l-.9 3.5a22.12 22.12 0 0 0 -2.5-.5 19.42 19.42 0 0 0 -2.4-.2v5.7l.7.1a10.55 10.55 0 0 1 2.4.6 5.44 5.44 0 0 1 1.8 1.1 5.67 5.67 0 0 1 1.2 1.8 7.27 7.27 0 0 1 .4 2.5v.4a6.25 6.25 0 0 1 -1.6 4.5 8.2 8.2 0 0 1 -4.9 2v2.7h-2.2v-2.6a18.59 18.59 0 0 1 -3.3-.4 15.83 15.83 0 0 1 -3.1-.9l1-3.6a19.73 19.73 0 0 0 2.6.7 13.33 13.33 0 0 0 2.8.3v-5.8l-.3-.1a12.55 12.55 0 0 1 -2.6-.7 6.15 6.15 0 0 1 -1.9-1.2 4.39 4.39 0 0 1 -1.2-1.8 6.9 6.9 0 0 1 -.4-2.5v-.4a5.75 5.75 0 0 1 1.8-4.6 8.16 8.16 0 0 1 4.7-1.9v-2.4h2.1zm-4.4 8.8a2.11 2.11 0 0 0 .6 1.8 3.37 3.37 0 0 0 1.7.8v-5.1a3.15 3.15 0 0 0 -1.7.9 1.66 1.66 0 0 0 -.6 1.6zm6.7 9.7a2.11 2.11 0 0 0 -.6-1.8 5.56 5.56 0 0 0 -1.7-.9v5.3a3 3 0 0 0 1.7-.8 2.2 2.2 0 0 0 .6-1.8z" transform="translate(0 -17.62)"/><path d="m1379.8 168.3.7-3.7h3.8a3.89 3.89 0 0 0 1.5-.2 2.36 2.36 0 0 0 .9-.6 1.23 1.23 0 0 0 .4-.8 2.77 2.77 0 0 0 .1-.9 3.08 3.08 0 0 0 -.3-1.3 3 3 0 0 0 -.8-.8 2.84 2.84 0 0 0 -1.2-.4 7.57 7.57 0 0 0 -1.5-.1 17.33 17.33 0 0 0 -3.2.3c-1 .2-2 .5-3 .8l.6-3.9a14.73 14.73 0 0 1 2.8-.8 19.53 19.53 0 0 1 3.4-.3 13.93 13.93 0 0 1 3.5.4 5.45 5.45 0 0 1 2.4 1.2 4.89 4.89 0 0 1 1.4 1.8 5.93 5.93 0 0 1 .5 2.3v.4a5 5 0 0 1 -.7 2.7 6 6 0 0 1 -2.3 1.9 5.46 5.46 0 0 1 2.5 2 6.09 6.09 0 0 1 .8 3.2v.4a7.42 7.42 0 0 1 -.5 2.5 5 5 0 0 1 -1.5 2 7.07 7.07 0 0 1 -2.6 1.3 15.83 15.83 0 0 1 -3.8.5 9.15 9.15 0 0 1 -1.6-.1 11 11 0 0 1 -1.8-.2 11.63 11.63 0 0 1 -1.8-.4 5.77 5.77 0 0 1 -1.7-.6l.7-3.6a15.54 15.54 0 0 0 3.1.7 24.52 24.52 0 0 0 2.7.2 6 6 0 0 0 3.2-.7 2.9 2.9 0 0 0 1.1-2.4 5 5 0 0 0 -.2-1.2 2.08 2.08 0 0 0 -.6-1 3.59 3.59 0 0 0 -1-.7 3 3 0 0 0 -1.6-.2z" transform="translate(0 -17.62)"/><path d="m1395.2 182.6 1.7-5.2a2 2 0 0 1 -.9-.9 2.77 2.77 0 0 1 -.3-1.3 2.19 2.19 0 0 1 .7-1.7 3.15 3.15 0 0 1 3.9 0 2.24 2.24 0 0 1 .6 1.7 5.85 5.85 0 0 1 -.2 1.3 6.12 6.12 0 0 1 -.5 1.2l-2.3 4.9z" transform="translate(0 -17.62)"/><path d="m1403.9 165.6a19.92 19.92 0 0 1 .4-4.2 9 9 0 0 1 1.3-3.2 6 6 0 0 1 2.5-2 11 11 0 0 1 8 .1 6.41 6.41 0 0 1 2.5 2.1 7.83 7.83 0 0 1 1.2 3.2 27.28 27.28 0 0 1 .3 4.1v2.7a19.92 19.92 0 0 1 -.4 4.2 9 9 0 0 1 -1.3 3.2 5.46 5.46 0 0 1 -2.5 2 11 11 0 0 1 -8-.1 7.21 7.21 0 0 1 -2.5-2.1 7.83 7.83 0 0 1 -1.2-3.2 27.28 27.28 0 0 1 -.3-4.1zm4.8 2.7a15.14 15.14 0 0 0 .2 3 6 6 0 0 0 .6 1.9 2.66 2.66 0 0 0 1 1.1 4.42 4.42 0 0 0 3.2 0 2.17 2.17 0 0 0 1-1.1 7 7 0 0 0 .6-1.9c.1-1 .2-2 .2-3v-2.7a15.14 15.14 0 0 0 -.2-3 6 6 0 0 0 -.6-1.9 2.66 2.66 0 0 0 -1-1.1 4.42 4.42 0 0 0 -3.2 0 2.17 2.17 0 0 0 -1 1.1 7 7 0 0 0 -.6 1.9c-.1 1-.2 2-.2 3z" transform="translate(0 -17.62)"/><path d="m1422.7 165.6a19.92 19.92 0 0 1 .4-4.2 9 9 0 0 1 1.3-3.2 6 6 0 0 1 2.5-2 11 11 0 0 1 8 .1 6.41 6.41 0 0 1 2.5 2.1 7.83 7.83 0 0 1 1.2 3.2 27.28 27.28 0 0 1 .3 4.1v2.7a27.27 27.27 0 0 1 -.3 4.1 9 9 0 0 1 -1.3 3.2 5.46 5.46 0 0 1 -2.5 2 11 11 0 0 1 -8-.1 7.21 7.21 0 0 1 -2.5-2.1 7.83 7.83 0 0 1 -1.2-3.2 27.28 27.28 0 0 1 -.3-4.1zm4.8 2.7a15.14 15.14 0 0 0 .2 3 6 6 0 0 0 .6 1.9 2.66 2.66 0 0 0 1 1.1 4.42 4.42 0 0 0 3.2 0 2.17 2.17 0 0 0 1-1.1 7 7 0 0 0 .6-1.9c.1-1 .2-2 .2-3v-2.7a15.14 15.14 0 0 0 -.2-3 6 6 0 0 0 -.6-1.9 2.66 2.66 0 0 0 -1-1.1 4.42 4.42 0 0 0 -3.2 0 2.17 2.17 0 0 0 -1 1.1 7 7 0 0 0 -.6 1.9c-.1 1-.2 2-.2 3z" transform="translate(0 -17.62)"/><path d="m1448.4 178.3h-1.5a9.85 9.85 0 0 1 -1.7-.2l-1.8-.3a10.93 10.93 0 0 1 -1.7-.5l.7-3.7a13.57 13.57 0 0 0 2.9.6 24.58 24.58 0 0 0 2.8.2 4.83 4.83 0 0 0 3.1-.8 2.72 2.72 0 0 0 .9-2.4 4.14 4.14 0 0 0 -.3-1.6 2.19 2.19 0 0 0 -.9-1 5.78 5.78 0 0 0 -1.4-.5 13.4 13.4 0 0 0 -2-.1h-4.6l.3-12.1h12.6l-.5 3.8h-7.8l-.1 4.5h1.8a14.72 14.72 0 0 1 3.6.4 5.64 5.64 0 0 1 2.4 1.3 4.65 4.65 0 0 1 1.3 2.1 9.24 9.24 0 0 1 .4 2.9v.5a9.18 9.18 0 0 1 -.5 2.8 6.62 6.62 0 0 1 -1.5 2.2 9.39 9.39 0 0 1 -2.6 1.4 19 19 0 0 1 -3.9.5z" transform="translate(0 -17.62)"/><path d="m1463.4 172.9a3.94 3.94 0 0 1 2.1.6 3.21 3.21 0 0 1 0 4 3.45 3.45 0 0 1 -4.1 0 3.21 3.21 0 0 1 0-4 3.38 3.38 0 0 1 2-.6z" transform="translate(0 -17.62)"/><path d="m1468.9 165.6a19.92 19.92 0 0 1 .4-4.2 9 9 0 0 1 1.3-3.2 6 6 0 0 1 2.5-2 11 11 0 0 1 8 .1 6.41 6.41 0 0 1 2.5 2.1 7.83 7.83 0 0 1 1.2 3.2 27.28 27.28 0 0 1 .3 4.1v2.7a19.92 19.92 0 0 1 -.4 4.2 9 9 0 0 1 -1.3 3.2 5.46 5.46 0 0 1 -2.5 2 11 11 0 0 1 -8-.1 7.21 7.21 0 0 1 -2.5-2.1 7.83 7.83 0 0 1 -1.2-3.2 27.28 27.28 0 0 1 -.3-4.1zm4.8 2.7a15.14 15.14 0 0 0 .2 3 6 6 0 0 0 .6 1.9 2.66 2.66 0 0 0 1 1.1 4.42 4.42 0 0 0 3.2 0 2.17 2.17 0 0 0 1-1.1 7 7 0 0 0 .6-1.9c.1-1 .2-2 .2-3v-2.7a15.14 15.14 0 0 0 -.2-3 6 6 0 0 0 -.6-1.9 2.66 2.66 0 0 0 -1-1.1 4.42 4.42 0 0 0 -3.2 0 2.17 2.17 0 0 0 -1 1.1 7 7 0 0 0 -.6 1.9c-.1 1-.2 2-.2 3z" transform="translate(0 -17.62)"/><path d="m1487.7 165.6a19.92 19.92 0 0 1 .4-4.2 9 9 0 0 1 1.3-3.2 6 6 0 0 1 2.5-2 11 11 0 0 1 8 .1 6.41 6.41 0 0 1 2.5 2.1 7.83 7.83 0 0 1 1.2 3.2 27.28 27.28 0 0 1 .3 4.1v2.7a27.27 27.27 0 0 1 -.3 4.1 9 9 0 0 1 -1.3 3.2 5.46 5.46 0 0 1 -2.5 2 11 11 0 0 1 -8-.1 7.21 7.21 0 0 1 -2.5-2.1 7.83 7.83 0 0 1 -1.2-3.2 27.28 27.28 0 0 1 -.3-4.1zm4.8 2.7a15.14 15.14 0 0 0 .2 3 6 6 0 0 0 .6 1.9 2.66 2.66 0 0 0 1 1.1 4.42 4.42 0 0 0 3.2 0 2.17 2.17 0 0 0 1-1.1 7 7 0 0 0 .6-1.9c.1-1 .2-2 .2-3v-2.7a15.14 15.14 0 0 0 -.2-3 6 6 0 0 0 -.6-1.9 2.66 2.66 0 0 0 -1-1.1 4.42 4.42 0 0 0 -3.2 0 2.17 2.17 0 0 0 -1 1.1 7 7 0 0 0 -.6 1.9c-.1 1-.2 2-.2 3z" transform="translate(0 -17.62)"/><path d="m1424.8 195.2.3-1.4h1.8a1.7 1.7 0 0 0 .7-.1 1.38 1.38 0 0 0 .4-.3.76.76 0 0 0 .2-.4c0-.2.1-.3.1-.5a1 1 0 0 0 -.2-.7.78.78 0 0 0 -.4-.4 1.42 1.42 0 0 0 -.6-.2c-.3 0-.5-.1-.8-.1a5.7 5.7 0 0 0 -1.3.1 8.33 8.33 0 0 0 -1.5.4l.2-1.5a6.47 6.47 0 0 1 1.3-.4 6.6 6.6 0 0 1 1.4-.1 9.85 9.85 0 0 1 1.7.2 2.38 2.38 0 0 1 1.1.6 1.55 1.55 0 0 1 .6.8 3.55 3.55 0 0 1 .2 1v.2a2.16 2.16 0 0 1 -1.4 2.2 2.44 2.44 0 0 1 1.1.9 2.93 2.93 0 0 1 .4 1.6v.2a3.6 3.6 0 0 1 -.2 1.1 2.18 2.18 0 0 1 -.7.9 2.73 2.73 0 0 1 -1.2.6 4.68 4.68 0 0 1 -1.7.2 8.6 8.6 0 0 1 -1.6-.1 8.33 8.33 0 0 1 -1.5-.4l.3-1.4a3.08 3.08 0 0 0 1.3.3 5.28 5.28 0 0 0 1.3.1 3.29 3.29 0 0 0 1.7-.4 1.22 1.22 0 0 0 .5-1.2 1.27 1.27 0 0 0 -.1-.6 1.42 1.42 0 0 0 -.8-.9 2.2 2.2 0 0 0 -.8-.1z" fill="#8fc899" transform="translate(0 -17.62)"/><path d="m1433.5 195.2.3-1.4h1.8a1.7 1.7 0 0 0 .7-.1 1.38 1.38 0 0 0 .4-.3.76.76 0 0 0 .2-.4c0-.2.1-.3.1-.5a1 1 0 0 0 -.2-.7.78.78 0 0 0 -.4-.4 1.42 1.42 0 0 0 -.6-.2c-.3 0-.5-.1-.8-.1a5.7 5.7 0 0 0 -1.3.1 8.33 8.33 0 0 0 -1.5.4l.2-1.5a6.47 6.47 0 0 1 1.3-.4 6.6 6.6 0 0 1 1.4-.1 9.85 9.85 0 0 1 1.7.2 2.38 2.38 0 0 1 1.1.6 1.55 1.55 0 0 1 .6.8 3.55 3.55 0 0 1 .2 1v.2a2 2 0 0 1 -1.4 2.1 2.44 2.44 0 0 1 1.1.9 2.93 2.93 0 0 1 .4 1.6v.2a3.6 3.6 0 0 1 -.2 1.1 2.18 2.18 0 0 1 -.7.9 2.73 2.73 0 0 1 -1.2.6 4.68 4.68 0 0 1 -1.7.2 8.6 8.6 0 0 1 -1.6-.1 8.33 8.33 0 0 1 -1.5-.4l.3-1.4a3.08 3.08 0 0 0 1.3.3 5.28 5.28 0 0 0 1.3.1 3.29 3.29 0 0 0 1.7-.4 1.22 1.22 0 0 0 .5-1.2 1.27 1.27 0 0 0 -.1-.6 1.42 1.42 0 0 0 -.8-.9 2.2 2.2 0 0 0 -.8-.1z" fill="#8fc899" transform="translate(0 -17.62)"/><path d="m1443.2 189.5a5 5 0 0 1 1.2.2 1.56 1.56 0 0 1 .8.6 3.55 3.55 0 0 1 .4.9 4.1 4.1 0 0 1 .1 1.1v.5a4.1 4.1 0 0 1 -.1 1.1 3.55 3.55 0 0 1 -.4.9 1.55 1.55 0 0 1 -.8.6 2.54 2.54 0 0 1 -1.2.2 5 5 0 0 1 -1.2-.2 1.56 1.56 0 0 1 -.8-.6 3.55 3.55 0 0 1 -.4-.9 4.1 4.1 0 0 1 -.1-1.1v-.5a3.75 3.75 0 0 1 .1-1.1 3.55 3.55 0 0 1 .4-.9 5.54 5.54 0 0 1 .8-.6 5 5 0 0 1 1.2-.2zm0 4.8a.91.91 0 0 0 .8-.4 1.72 1.72 0 0 0 .2-1.2v-.4a2.2 2.2 0 0 0 -.1-.8c0-.2-.1-.3-.2-.5s-.2-.2-.3-.2a.6.6 0 0 0 -.4-.1.9.9 0 0 0 -.5.1c-.1 0-.2.1-.3.2a.76.76 0 0 0 -.2.5c0 .3-.1.5-.1.8v.4a2.35 2.35 0 0 0 .2 1.2 1.22 1.22 0 0 0 .9.4zm5.8-4.7h1.6l-5.8 10.1h-1.6zm1.8 4.2a5 5 0 0 1 1.2.2 1.56 1.56 0 0 1 .8.6 3.55 3.55 0 0 1 .4.9 4.1 4.1 0 0 1 .1 1.1v.5a4.1 4.1 0 0 1 -.1 1.1 3.55 3.55 0 0 1 -.4.9 1.55 1.55 0 0 1 -.8.6 2.54 2.54 0 0 1 -1.2.2 5 5 0 0 1 -1.2-.2 1.56 1.56 0 0 1 -.8-.6 3.55 3.55 0 0 1 -.4-.9 4.1 4.1 0 0 1 -.1-1.1v-.5a3.75 3.75 0 0 1 .1-1.1 3.55 3.55 0 0 1 .4-.9 5.54 5.54 0 0 1 .8-.6 5 5 0 0 1 1.2-.2zm0 4.8a.91.91 0 0 0 .8-.4 1.72 1.72 0 0 0 .2-1.2v-.4a2.2 2.2 0 0 0 -.1-.8c0-.2-.1-.3-.2-.5s-.2-.2-.3-.2a.6.6 0 0 0 -.4-.1.9.9 0 0 0 -.5.1c-.1 0-.2.1-.3.2a.76.76 0 0 0 -.2.5c0 .3-.1.5-.1.8v.4a2.35 2.35 0 0 0 .2 1.2 1.22 1.22 0 0 0 .9.4z" fill="#8fc899" transform="translate(0 -17.62)"/><path d="m1413.7 187.4a.6.6 0 0 1 .9 0l4.5 4.4a.5.5 0 0 1 0 .8.76.76 0 0 1 -.5.2c-.2 0-.3-.1-.5-.2l-3.3-3.3v9.9c0 .2-.1.3-.2.5a.91.91 0 0 1 -1 0 .76.76 0 0 1 -.2-.5v-9.9l-3.3 3.3a.75.75 0 0 1 -.9 0 .52.52 0 0 1 -.2-.4c0-.2.1-.3.2-.5l2.2-2.2z" fill="#8fc899" transform="translate(0 -17.62)"/></g><circle cx="1518.66" cy="695.2" fill="#fff" r=".7" transform="matrix(.96174131 -.27395922 .27395922 .96174131 -132.37 425.12)"/><g transform="translate(0 -17.62)"><path d="m484.6 64.2a.64.64 0 0 0 .9.1l.1-.1a.52.52 0 0 0 .2-.4v-8.4a.9.9 0 0 0 -.9-.9h-8.4c-.4 0-.6.3-.6.7v.1a.52.52 0 0 0 .2.4z" fill="#ed1c24"/><path d="m382.9 55.3a.68.68 0 0 1 .7-.7h3.7a.68.68 0 0 1 .7.7v8.1c0 .4.1.4.3.1l4.9-8.3a2.07 2.07 0 0 1 1-.6h3.7q.6 0 .3.6l-5 7.2a1.29 1.29 0 0 0 -.1 1.2l5.7 13c.1.2 0 .4-.2.6-.1 0-.2.1-.3.1h-3.9a1 1 0 0 1 -.9-.6l-3.5-9.2c-.1-.3-.4-.4-.6-.1l-1.1 1.6a2.84 2.84 0 0 0 -.4 1.2v6.3a.68.68 0 0 1 -.7.7h-3.7a.68.68 0 0 1 -.7-.7z"/><path d="m399.8 55.3a.68.68 0 0 1 .7-.7h3.4a.68.68 0 0 1 .7.7v21.2a.68.68 0 0 1 -.7.7h-3.4a.68.68 0 0 1 -.7-.7z"/><path d="m411.3 58.5a.68.68 0 0 1 -.7.7h-3.4a.68.68 0 0 1 -.7-.7v-3.3a.68.68 0 0 1 .7-.7h3.4a.68.68 0 0 1 .7.7zm-4.8 2.7a.68.68 0 0 1 .7-.7h3.4a.68.68 0 0 1 .7.7v15.4a.68.68 0 0 1 -.7.7h-3.4a.68.68 0 0 1 -.7-.7z"/><path d="m413.3 61.2a.68.68 0 0 1 .7-.7h3a.68.68 0 0 1 .7.7v1.2c0 .4.3.4.4.2a3.76 3.76 0 0 1 3.4-2.2 4.74 4.74 0 0 1 3.9 2c1 1.3 1.5 3.4 1.5 6.2a12.17 12.17 0 0 1 -1.5 6.6 4.73 4.73 0 0 1 -4.2 2.2 4.07 4.07 0 0 1 -3.2-1.5v6.2a.68.68 0 0 1 -.7.7h-3.3a.68.68 0 0 1 -.7-.7zm4.7 8.5v1.3a6.72 6.72 0 0 0 .4 2.4 1.73 1.73 0 0 0 1.6.7 1.78 1.78 0 0 0 1.6-1 14.15 14.15 0 0 0 .5-4.6 12.1 12.1 0 0 0 -.5-4.2 1.5 1.5 0 0 0 -1.5-1.1 1.8 1.8 0 0 0 -1.5.7c-.4.5-.6 1.5-.6 3.2z"/><path d="m450.6 68.8q0 8.7-6.9 8.7t-6.9-8.7q0-8.7 6.9-8.7t6.9 8.7zm-4.9 0a15.68 15.68 0 0 0 -.4-4.3 1.73 1.73 0 0 0 -2.1-1.1 1.28 1.28 0 0 0 -1 1 13 13 0 0 0 -.5 4.4 15 15 0 0 0 .4 4.2 1.58 1.58 0 0 0 2 1.1h.1a2 2 0 0 0 1.1-1.1 15 15 0 0 0 .4-4.2z"/><path d="m452.2 55.3a.68.68 0 0 1 .7-.7h3.4a.68.68 0 0 1 .7.7v21.2a.68.68 0 0 1 -.7.7h-3.4a.68.68 0 0 1 -.7-.7z"/><path d="m463.7 58.5a.68.68 0 0 1 -.7.7h-3.4a.68.68 0 0 1 -.7-.7v-3.3a.68.68 0 0 1 .7-.7h3.4a.68.68 0 0 1 .7.7zm-4.8 2.7a.68.68 0 0 1 .7-.7h3.4a.68.68 0 0 1 .7.7v15.4a.68.68 0 0 1 -.7.7h-3.4a.68.68 0 0 1 -.7-.7z"/><path d="m479.1 68.8q0 8.7-6.9 8.7t-6.9-8.7q0-8.7 6.9-8.7t6.9 8.7zm-4.9 0a12.39 12.39 0 0 0 -.5-4.3 1.57 1.57 0 0 0 -2-1 1.44 1.44 0 0 0 -1 1 13 13 0 0 0 -.5 4.4 15 15 0 0 0 .4 4.2 1.58 1.58 0 0 0 2 1.1h.1a2 2 0 0 0 1.1-1.1 20.24 20.24 0 0 0 .4-4.3z"/><path d="m436.5 53.9a10.87 10.87 0 0 0 -1.8-.1 5.8 5.8 0 0 0 -3.4.9 4 4 0 0 0 -1.6 2.2c-.2 1-.3 2-.4 3v.7h-1.3a.68.68 0 0 0 -.7.7v2.3a.68.68 0 0 0 .7.7h1.3v12.4a.68.68 0 0 0 .7.7h3.2a.68.68 0 0 0 .7-.7v-12.3h2.3a.68.68 0 0 0 .7-.7v-2.3a.68.68 0 0 0 -.7-.7h-2.3a5.07 5.07 0 0 1 .4-2.4 1.83 1.83 0 0 1 1.7-.6h.4a.75.75 0 0 0 .7-.5v-2.5c0-.5-.3-.8-.6-.8z"/><path d="m340.4 636.3-15.4-8.5s-12.9 13.9-5.4 23.5l23.7 17z" fill="#765b3e"/><path d="m288.7 644.9s-6.7-13.2-19.5-13.2-12.6 15.3-12.6 15.3-13.2 18.7-6.1 26.8 20.1 4.5 25.9-8.9 12.3-20 12.3-20z" fill="#e8a661"/><path d="m335 625.9s-14.4-11.1-22.5-3.4-.9 11.2-5 15.1-9.8 19.7-9.8 19.7l14 8s11.2-2 11.4-13.1l3-9.6z" fill="#e8a661"/><path d="m235.3 291.7-2.4-5.5s7.2-13.7 1.2-21.6-10.1-16.6-25.1-7.9-4 27.4-4 27.4 7.1 9.6 10.8 10.4l2.2 5.3z" fill="#cf9e76"/><path d="m445.2 267.5s-.1-5.8.7-6.8 14.8-16.1 10.7-23.9-16.5-18.1-31.5-14.4-8.7 24.9-6.9 27.1 9.4 8.2 8.4 15.8z" fill="#cf9e76"/><path d="m331.2 551.5s-3.3 67.8.2 83.2 2.7 42.8 2.7 42.8l-37.8-26.6s-.8-10.8-16.2-8.7c-8.5 1.2-12.3 8.3-14 14.4a9.08 9.08 0 0 0 5.1 10.9c3.5 1.5 8.1 4.4 13.5 10 11.6 12.1 37 55.7 63.2 54.9s26.2-28.7 26.2-28.7-1.7 16.6 13.7 19.1 35.3 10 39.9-65.3-2.5-110.1-2.5-110.1l-50.7-13.3z" fill="#9d7952"/><path d="m387.8 576.4s.8 91.5-13.7 127.2" style="fill:none;opacity:.2;stroke:#231f20;stroke-miterlimit:10;stroke-linecap:round;stroke-width:4"/><path d="m323.5 329.2s-7.6-1.4-8.4 6.5-.5 31.9-.2 33 4.8 1.2 5.4 7.9 18.3 23.9 18.3 23.9l40.1-6.6s5.7-16.2 5.9-18.8-1-28.3-2.2-31-2.3-18.7-23.6-23.8c-22-5.4-30.4-2-35.3 8.9z" fill="#231f20"/><path d="m319.5 456.2a9.63 9.63 0 0 1 3 6.2l8.8 89c30.8 1.7 94-4.2 94-4.2 1-23.7-13.1-89-17-106.2a10.34 10.34 0 0 1 1.2-7.3c9.3-15.2 31.5-70.2 33.6-75.9s9.7-79.1 10.7-88.6c.1-.5-.4-1-.9-1.1l-30-2.7a1.08 1.08 0 0 0 -1.1.8l-10.5 68.4c-.6 3.9-1.4 7.9-2.3 11.8l-8.2 34.4c-1.5 5.3-7 14.5-9.8 17.7-4.3 5-15.7 8-26.8 9.7l-25.7 2.4-15.9-3.4a11.87 11.87 0 0 1 -6.5-3.7l-32.3-35.3a61.78 61.78 0 0 1 -9.2-12.9l-35.2-64.6a.9.9 0 0 0 -1.3-.4l-28.1 13.3a1 1 0 0 0 -.5 1.3s43.5 92.9 110 151.3z" fill="#1363f5"/><path d="m385.3 374-1.4-15-7.8-18a5.18 5.18 0 0 0 -5.8-2.9c-6.2 1.5-17.9 4-24.6 3.3-9.4-1-20.4 1.8-22.9 6.9s-1.5 22.6-1.5 22.6l-6.5-1.9s-3.6.4-2.7 10.4 9.5 10.5 9.5 10.5 4.7 15.5 8.7 18.4 27 11.2 29.6 11.8 14.5-8.8 19.7-15 8.3-23 5.7-31.1z" fill="#cf9e76"/><path d="m1164 508.8-1.2-5.1s8.5-10.8 4.6-18.6-6.1-16.1-20.6-11-8 23.2-8 23.2 4.6 9.5 7.7 10.8l1.1 5z" fill="#cf9e76"/><path d="m1356.3 520.7 1.8-5s-7.2-11.7-2.4-19 8-15.3 21.7-8.5 5.1 24 5.1 24-5.7 8.9-8.9 9.8l-1.6 4.8z" fill="#cf9e76"/><path d="m1166.4 507.1 57.7 139.3a6 6 0 0 0 6 3.7l18.2-1.4 18.9 4.6h15.7a9.65 9.65 0 0 0 8.6-5.1l38.6-69.7 22-60.7a.93.93 0 0 1 1.2-.6l22 7.1a1 1 0 0 1 .6 1.3l-33.2 96.1-31.8 82-11 49.2a71.05 71.05 0 0 0 -.8 26.4l9.2 57a1.1 1.1 0 0 1 -.8 1.2h-.2l-94.7-7.8a.9.9 0 0 1 -.9-1.1v-.1l10.2-51.8a63.78 63.78 0 0 0 -.6-27.5l-12.2-50.1-36.7-92.4-28.3-94.5a.89.89 0 0 1 .7-1.2h.1l20.4-4.4a.89.89 0 0 1 1.1.5z" fill="#b61a1d"/><path d="m1270.9 627.3 5.8 26s-13.3 5.8-19.6 6.4-12.2-9.5-12.2-9.5 6.5-18 7-22.8h19z" fill="#cf9e76"/><path d="m1318.5 561.2a18.1 18.1 0 0 0 -2.5-3 15.87 15.87 0 0 0 -13.3-26.4 15.83 15.83 0 0 0 -18.7-12.2h-.1a16.53 16.53 0 0 0 -5.3 2.2c-.3.2-.5.4-.8.6a2.09 2.09 0 0 0 -.4-.6 15.81 15.81 0 0 0 -21.8-4.8l-.1.1a7.1 7.1 0 0 0 -1.4 1 15.87 15.87 0 0 0 -19.8 7.1 15.86 15.86 0 0 0 -17.7 13.8 15.07 15.07 0 0 0 -.1 3 15.82 15.82 0 0 0 -9.4 20.3 17.1 17.1 0 0 0 3.1 5.2 15.93 15.93 0 0 0 1.2 22.4 17.07 17.07 0 0 0 5 3 15.83 15.83 0 0 0 15.8 15.8h.1a17.33 17.33 0 0 0 3.2-.3 16 16 0 0 0 19.5 4.8 15.91 15.91 0 0 0 22.2 3.1 15.3 15.3 0 0 0 5.5-7.7 15.75 15.75 0 0 0 13.9-5 16 16 0 0 0 17.5-14.1 17.45 17.45 0 0 0 -.5-6l.2-.1a16.08 16.08 0 0 0 4.7-22.2z" fill="#231f20"/></g><ellipse cx="1263.6" cy="569.88" fill="#cf9e76" rx="41.3" ry="49.4"/><path d="m1311 557.3a14.38 14.38 0 0 0 -17-11.2h-.1a27.58 27.58 0 0 0 -2.7.8 14.44 14.44 0 0 0 -15.1-13.8 22.54 22.54 0 0 0 -3.6.6 8.22 8.22 0 0 0 -11.2-2.7 7 7 0 0 0 -2.2 2 14.39 14.39 0 0 0 -17.9 3.3 14.34 14.34 0 0 0 -16.8 11.4v.1a12.29 12.29 0 0 0 -.2 2.7v.2a14.48 14.48 0 1 0 17.1 14.2v-.2a14.62 14.62 0 0 0 8.4-4.8 14.47 14.47 0 0 0 14.4-5.9 14.59 14.59 0 0 0 18.5 6.8 14.16 14.16 0 0 0 7.2 11.8 14.45 14.45 0 1 0 28.3-5.9 16 16 0 0 0 -7.1-9.4z" fill="#231f20" transform="translate(0 -17.62)"/><path d="m1302.7 567.6c7.7-5.6 2.4-17-6.9-14.4l1.2 1.2a11 11 0 0 0 -6-14.3 11.15 11.15 0 0 0 -12.6 3.1c-.8 1 .6 2.4 1.4 1.4 7.1-8 19.1-.6 15.3 9.3-.3.7.5 1.4 1.2 1.2 6.6-1.9 11.4 6.3 5.4 10.7-1 .8 0 2.5 1 1.8z" transform="translate(0 -17.62)"/><path d="m1279.6 531.5c-1.6-3.6-4.8-6.2-8.8-6.2a9.22 9.22 0 0 0 -5.1 1.5c-2.3 1.4-1.6 2.3-4.2 1.5-8.4-2.6-16.4-.7-19.8 8.3-.4 1.2 1.5 1.7 1.9.5 3.1-8.2 12.2-10.7 19.2-5.6a1.08 1.08 0 0 0 1.4-.3v-.1c3.7-5.5 11.1-4.5 13.7 1.4.5 1.2 2.2.2 1.7-1z" transform="translate(0 -17.62)"/><path d="m1226.7 562.5c-2.6 0-6.8-2.6-5.4-6a5.71 5.71 0 0 1 6-3.5 1.05 1.05 0 0 0 .9-.5 12.2 12.2 0 0 1 6.3-5.3c2.3-.8 11.8.6 6.4 5.2-1 .8.4 2.2 1.4 1.4 3.1-2.7 1.7-7.1-1.9-8.6-4.9-2-9.4 1.2-12.8 4.4-1.5 1.4-3.4 1.2-5.2 2.2a6.62 6.62 0 0 0 -3.3 5.2c-.4 4.3 3.5 7.4 7.5 7.4a1 1 0 0 0 1-.9v-.1a.82.82 0 0 0 -.8-.9z" transform="translate(0 -17.62)"/><ellipse cx="1182.6" cy="973.28" fill="#231f20" opacity=".1" rx="20.3" ry="5.6"/><ellipse cx="1292.6" cy="985.98" fill="#231f20" opacity=".1" rx="20.3" ry="5.6"/><ellipse cx="1333.9" cy="871.68" fill="#231f20" opacity=".1" rx="12" ry="3.3"/><path d="m1317.5 871.6-10.7 27.5-2.8-62.3-87.1-6.7s-14.6 41-19.7 50-19.7 75.8-25.3 91.5 3.9 23 11.2 22.5 16.8-14 23.6-18.5 53.3-68 53.3-68 17.4 79.2 19.1 87.6 7.9 12.4 15.2 11.2 11.8-17.4 15.7-29.8c3.9-12.2 14.3-94.5 14.6-97.1v-.1zm-78.4 33 10.9-19a9.4 9.4 0 0 0 5.7 1l1.1 2.7z" fill="#14313f" transform="translate(0 -17.62)"/><path d="m1317.5 871.6s-2.2-8.7 4.8-10.6 10.1 7.7 12.6 10.6 9.7 14.9 2.9 19.1-14.3-.1-13.1-11.2z" fill="#5a4c49" transform="translate(0 -17.62)"/><path d="m932 743.7s18.8-8.5 24.3 4.9 15.2 50.4 3.7 67.5-17.6-18.8-20.7-25.5-12.2-17-12.2-17l-15.2-22.5z" fill="#d8ab36" transform="translate(0 -17.62)"/><path d="m876.1 761.3s13.4 22.5 13.1 28-1.5 24.9 8.8 24.9 11.5-40.7 6.1-52.9z" fill="#d8ab36" transform="translate(0 -17.62)"/><path d="m737.7 328s-2.2-15.6-2.4-20.3-4-23.3-14.6-15.4-.6 20.7-.8 22.9 6.7 18.8 6.7 18.8z" fill="#e5ad88" transform="translate(0 -17.62)"/><path d="m1051.8 526.2a44.79 44.79 0 0 0 8.5-4.2c3.5-2.4 13.2-4.4 13.7 4.2s2.4 18.2-5.8 18.7-9.2-4.8-16.4-4.7z" fill="#e5ad88" transform="translate(0 -17.62)"/><path d="m883.9 360.6c29 8.7 41.1 43.2 24.9 68.8a109.73 109.73 0 0 1 -16.5 20.1 95.38 95.38 0 0 1 -21.4 15.4l-3.8 14.8-29.9-7.8 3.8-14.8a91.56 91.56 0 0 1 -11.2-23.9 105.9 105.9 0 0 1 -4.6-25.6c-1.7-30.2 25.6-54.5 55.2-48 .6.1 1.2.3 1.7.4a6.36 6.36 0 0 0 1.8.6z" fill="#e5ad88" transform="translate(0 -17.62)"/><circle cx="870.77" cy="404.02" fill="#511c38" r="45.4" transform="matrix(.25139371 -.96788491 .96788491 .25139371 260.81 1127.64)"/><circle cx="870.8" cy="386.38" fill="#231f20" r="9.5"/><path d="m891.9 529.7s-28.6 15.8-24.9 38.3 6.1 29.2 6.1 29.2l-60.2 34-10.3-4.8s-14.6-37.1-14-58.3-7.3-31 0-53.5 10.3-31.6 3.1-51c-6.8-18.4-59.1-118.2-64.5-128.5a.88.88 0 0 1 .4-1.3l11.8-6.4a1.09 1.09 0 0 1 1.3.3c4.7 6.4 40.3 55.3 42.6 64.9s40.6 51.1 45.7 68.1a6 6 0 0 0 3.9 4l5.8 1.9s52.3 24.3 61.4 28 49.7 10.8 69.9 12.8c16.1 1.6 59 14.2 81.1 16.3a1.06 1.06 0 0 1 .9 1v16a.94.94 0 0 1 -1 1h-.2c-6.7-1.5-39.1-8.6-51.1-6.4-13.6 2.4-87.1-15.3-107.8-5.6z" fill="#e32759" transform="translate(0 -17.62)"/><path d="m873.6 400.4a4.08 4.08 0 0 1 1.7 3.8c-1 13.9-8.6 113.4-30.5 137.4-23.6 25.8-46.7 5.6-16.1-44 25.7-41.6 33.7-80.3 35.5-91.7a7.26 7.26 0 0 1 5.5-6.1 5.36 5.36 0 0 1 3.9.6z" fill="#511c38" transform="translate(0 -17.62)"/><path d="m873.1 597.2s29.8 33.4 20.7 60.8-55.9 68.1-55.9 68.1l94.2 17.6-4.9 29.7s-54.1-10.3-89.3-7.3-57.2 13.4-77.2 1.9 35.2-99.1 46.2-113l-4.3-28.6z" fill="#55758a" transform="translate(0 -17.62)"/><path d="m834.7 648.6s-35.2 53.5-40.7 82.7 22.5 31 40.7 29.8" fill="none" opacity=".2" stroke="#231f20" stroke-miterlimit="10" stroke-width="1.22" transform="translate(0 -17.62)"/><ellipse cx="865.5" cy="930.78" fill="#231f20" opacity=".1" rx="89.2" ry="10"/><path d="m1567.4 846.8a1.27 1.27 0 0 1 -.1-.6s-15.9-21.8-23-25.1-53.2 14.4-53.2 14.4-4.5 13-4.8 19a41.8 41.8 0 0 0 1.8 14.9z" fill="#d9cab6" transform="translate(0 -17.62)"/><path d="m1492.6 868.1c-.5-.8-1-1.7-1.6-2.6-2.5-4.1-2.5-7.7-.9-12.1s4.3-14 4.3-14l-2.2-5.6-2.2.8s-4.5 13-4.8 19a39.1 39.1 0 0 0 2.2 15.9z" fill="#a17b48" transform="translate(0 -17.62)"/><path d="m1589.8 900.1s5.2 5-.5 6.6-17 5.7-17 5.7l-9.3-32.5-1-18.6 6.3 1.1 4.2.7a12.47 12.47 0 0 0 -3 2.1c-5.5 5.2-3.3 13.7-2.1 15.1 1.7 2 7.2.5 8.7-3.9s2.6-6.1 4.8-5.9a32.53 32.53 0 0 0 4.4-.3c.2.2.3.5.5.7 3 4.5 11.9 17.1 4 29.2z" fill="#a17b48" transform="translate(0 -17.62)"/><path d="m1557.8 908.4 5.1-4-8.6-45.7-11.4-11.1-14.3 4.1-3.5 28.6-18.1 2.6 10.2 13.4 9.3 12.9 13.6 2.2 5.8-2.2c-.1.1 4.1 1.1 11.9-.8z" fill="#8e7961" transform="translate(0 -17.62)"/><path d="m1585.3 870.2a16 16 0 0 1 -4.4.3c-2.3-.2-3.3 1.5-4.8 5.9s-7 5.9-8.7 3.9c-1.2-1.4-3.4-9.9 2.1-15.1a12.47 12.47 0 0 1 3-2.1 10.84 10.84 0 0 1 1.9-.8 3.38 3.38 0 0 1 .6 1.2s7 2.6 10.3 6.7z" fill="#8e7961" transform="translate(0 -17.62)"/><path d="m1529.3 919.6s.1 5 7.4 1.5c0 0 6.3.7 6-3.4s3.2-8.5 3.2-8.5-17.9 2.6-28.8-12.9l6.7 15s3.9 2.3 5 2.2c0 0-3.3 4-5.7 3.6s6.2 2.5 6.2 2.5z" fill="#a17b48" transform="translate(0 -17.62)"/><path d="m1487.6 869.6 29.4 51.6s-7.9 1.1-6.7 7.5 6.2 4.1 7.6 2.3c0 0 7.1-.3 7.7-3 0 0 7.7.9 3.7-8.4s-9.5-16.2-11-30.6c0 0 13.8 11.3 20.1 9.5s15.1-5.4 12.9-9.9-2.9-9.9-3.5-12.5-6.1-10.4-6.7-13.3-3-4.8-2.2-7.8 3-6.2 3.6-2.7-1.2 3.5.9 8.5 3.9 8.2 6.7 11 2.2 9.8 3.9 13.5 3.9 23.1 3.9 23.1-3.1 5.4-.2 7.7 5.7-.5 5.7-.5 8.1.5 9-3.1c0 0 5.5 1.5 3.8-4.5s-4.8-9-5.6-13.9 1.1-23.8-.6-28l-.3-.9-3.9-12.6-3.1-6.5-20.4-2.2-26.9 11.6-20 8.2z" fill="#d9cab6" transform="translate(0 -17.62)"/><path d="m1542.9 834.9.2.1a90.54 90.54 0 0 1 12.8 6.5l.1.1a12.9 12.9 0 0 1 4.9 7l7.2-2-.1-.3v-.1c-.7-2.4-3.9-5.2-4.4-5.6l-.1-.1c-1.1-1.2-11.8-15.2-18.3-19.4a11.45 11.45 0 0 0 -3.6-1.5 1.48 1.48 0 0 0 -1.6.8l-3.8 8.9a1.31 1.31 0 0 0 .5 1.7z" fill="#a17b48" transform="translate(0 -17.62)"/><path d="m1574.4 862.3a10.84 10.84 0 0 0 -1.9.8 12.47 12.47 0 0 0 -3 2.1c-.3-.7-.7-1.6-1.2-2.8a78.69 78.69 0 0 0 -7.4-13.7l7.1-2s.9 10.5 3.6 12.8a12.4 12.4 0 0 1 2.8 2.8z" fill="#a17b48" transform="translate(0 -17.62)"/><path d="m1488.9 838.5s11.1 13 33.9 6 21.2-24 21.2-24l-5.7-1.8s-7.7 19-18.8 20-28.9-5.7-28.9-5.7z" fill="#be1e2d" transform="translate(0 -17.62)"/><path d="m1488.3 839.3s11.5 13.7 35 6.4 21.7-25.1 21.7-25.1l-5.9-1.9s-7.9 19.9-19.3 20.9-29.8-6.2-29.8-6.2z" fill="#be1e2d" transform="translate(0 -17.62)"/><path d="m1489.1 784.9s4.1-3.8 15.6-5.6l11.6-1.8s13.1-3 18.7 16c1.4 4.8 4.3 9.7 3.7 12.8s3.4 9.7 3 11.9-2 13-6.7 17-6.9 3.3-6.9 3.3-12.2 6.3-16.8 5.1c-4.8 3.6-8 .7-9.9 0s-12.8-4.9-16-15.4a93.55 93.55 0 0 1 -3.6-22.3c-.1 0 .8-14.3 7.3-21z" fill="#d9cab6" transform="translate(0 -17.62)"/><path d="m1496.5 781.3a2.65 2.65 0 0 1 2.3.2 9.91 9.91 0 0 1 1.7 1.1 20.65 20.65 0 0 1 2.8 3.1 2.36 2.36 0 0 1 .4 2.3c-.4 1.4-1.1 3.6-1.5 5.1-.6 2.3 5.2 8.3 2 10.4s-5 2.8-6.8 6.6c-2.7 5.7 1.2 6.7-3.4 16.8-12-.3-12.7-17.8-12.7-19.8v-.4c.2-1.9 2.4-18.1 7-21.5a30.9 30.9 0 0 1 8.2-3.9z" fill="#93724a" transform="translate(0 -17.62)"/><circle cx="1519" cy="779.58" fill="#404041" r="2.5"/><ellipse cx="1518.77" cy="797.12" fill="#231f20" rx="2" ry="1.8" transform="matrix(.96174131 -.27395922 .27395922 .96174131 -160.29 429.05)"/><circle cx="1497.9" cy="785.58" fill="#404041" r="2.5"/><ellipse cx="1498.07" cy="803.02" fill="#231f20" rx="2" ry="1.8" transform="matrix(.96174131 -.27395922 .27395922 .96174131 -162.7 423.6)"/><circle cx="1497.77" cy="802.19" fill="#fff" r=".7" transform="matrix(.96174131 -.27395922 .27395922 .96174131 -162.48 423.49)"/><path d="m1521.5 818.8c-.3-.1-.5-.1-.8-.2l-.4-.2-.6-.2-1.2-.6-.6-.3-3.3-1.8a21.62 21.62 0 0 1 -1-4.4l-2 .6 1.3 4.5s-2.1 3.1-3.6 5.4c-2 2.7-3.3 1.4-3.3 1.4.5 1 1.2 1.2 1.8 1a4.74 4.74 0 0 0 1.9-1.2l.2-.2.1-.1.5-.5.1-.1c1.4-1.5 3-3.4 3.7-3.7s3 .3 5 .9l.4.1h.1a10.47 10.47 0 0 0 3 .5c.2 0 .3-.1.4-.1h.1a1.5 1.5 0 0 0 .8-1.8 2.23 2.23 0 0 1 -2.6 1z" fill="#404041" transform="translate(0 -17.62)"/><path d="m1513.9 813c-.2-1-.3-1.8-.3-1.8l-2 .6.5 1.7z" fill="#353535" opacity=".5" transform="translate(0 -17.62)"/><path d="m1506.1 808.3s.8-4.6 3.5-5.3 6.5 2.5 6.5 2.5 4.4 3.6 1.4 5.1-8.1 2.5-10 2.8-2.7-1.6-1.4-5.1z" fill="#404041" transform="translate(0 -17.62)"/><path d="m1507.5 813.3a54.27 54.27 0 0 0 8.8-2.3c-4.3-.8-7.8-4.1-9.2-5.7a18.15 18.15 0 0 0 -1.1 3c-1.2 3.5-.3 5.4 1.5 5z" fill="#353535" transform="translate(0 -17.62)"/><path d="m1493.2 795.9c-1.8-5.7-2.6-8.7-3.4-9.9l-.6-.7-.7.1a29.6 29.6 0 0 1 -5.2.7c-1.1-.2-3.9-1.4-6.4 1-8.5 8.1-6.9 7.5-9.6 13.8-1 2.2 2.9 3.5 3.3 5.3.6 2.4 1.7 3.4 2.5 3.8a.48.48 0 0 0 .6-.2.19.19 0 0 0 0-.3c-.6-2.3-2.1-9.2-1.4-9.6.9-.5 1.3 1.8 2.1 3.7s7.9 4 7.9 4 13.5-3.8 10.9-11.7z" fill="#93724a" transform="translate(0 -17.62)"/><path d="m1478.4 791a2.25 2.25 0 0 0 -1.8-.2 13.1 13.1 0 0 0 -4.3 9.2c.9-.5 1.3 1.8 2.1 3.7.7 1.7 6.1 3.5 7.5 3.9.2-5.3.1-15-3.5-16.6z" fill="#675339" transform="translate(0 -17.62)"/><path d="m1478.7 791.2-.3-.2a2.25 2.25 0 0 0 -1.8-.2 13.1 13.1 0 0 0 -4.3 9.2c.4-.2.7.1 1 .8a19.25 19.25 0 0 1 5.4-9.6z" fill="#59462e" opacity=".5" transform="translate(0 -17.62)"/><path d="m1519.8 788.4c-1.4-5.8-2.5-8.8-2.5-10.2l.3-.9.7-.3a26.16 26.16 0 0 0 4.8-2.2c.8-.7 2.5-3.3 6-2.5 11.5 2.4 9.8 2.8 15.5 6.7 2 1.4-.6 4.5 0 6.3.8 2.4.3 3.8-.1 4.5a.48.48 0 0 1 -.6.2c-.1-.1-.2-.1-.2-.2-.8-2.3-3-9-3.9-8.9s-.2 2.2.2 4.3-4.3 7.7-4.3 7.7-13.9 3.5-15.9-4.5z" fill="#a17b48" transform="translate(0 -17.62)"/><path d="m1529.9 776.4a3.33 3.33 0 0 1 1.4-1.2 13 13 0 0 1 8.5 5.5c-1 .1-.2 2.2.2 4.3.3 1.8-3.4 6.2-4.3 7.3-2.9-4.3-7.9-12.6-5.8-15.9z" fill="#675339" transform="translate(0 -17.62)"/><path d="m1531.4 775.3a2.36 2.36 0 0 0 -1.4 1.2l-.1.1c2.4.9 6.7 2.7 9.6 5.7-.1-.8-.1-1.4.4-1.4a13.47 13.47 0 0 0 -8.5-5.6z" fill="#59462e" opacity=".5" transform="translate(0 -17.62)"/><ellipse cx="1595.7" cy="935.28" fill="#231f20" opacity=".1" rx="112.2" ry="5.6"/><path d="m1595.7 831.88h103.7v103.7h-103.7z" fill="#71b37c"/><path d="m1535.3 728.28h103.7v103.7h-103.7z" fill="#ec932f"/><path d="m1492 831.58h103.7v103.7h-103.7z" fill="#5290e9"/><path d="m1522.5 651.1h129.2a5.59 5.59 0 0 1 5.6 5.6v84a2.31 2.31 0 0 1 -2.2 2.3h-134.9a3.35 3.35 0 0 1 -3.4-3.3v-83.1a5.73 5.73 0 0 1 5.7-5.5z" fill="#6d6e71" transform="translate(0 -17.62)"/><path d="m1503.3 742.2h167.7c.1 0 .3.1.3.2v1.8c0 .1-.1.3-.2.3h-167.8c-.1 0-.3-.1-.3-.2v-1.8a.32.32 0 0 1 .3-.3z" fill="#58595b" transform="translate(0 -17.62)"/><path d="m1665.7 745.9h-157.2a10.76 10.76 0 0 1 -5.3-1.4h167.7a8.88 8.88 0 0 1 -5.2 1.4z" fill="#58595b" transform="translate(0 -17.62)"/><path d="m1585.4 690.2h4a4.74 4.74 0 0 1 4.8 4.8v4a4.74 4.74 0 0 1 -4.8 4.8h-4a4.74 4.74 0 0 1 -4.8-4.8v-4a4.8 4.8 0 0 1 4.8-4.8z" fill="#e6e7e8" transform="translate(0 -17.62)"/></svg>